<svg xmlns="http://www.w3.org/2000/svg" viewBox="0 0 64 64">
  <rect width="64" height="64" fill="#ff6b35"/>
  <!-- Araba gövdesi -->
  <path d="M 10 35 L 15 25 L 22 25 L 25 20 L 39 20 L 42 25 L 49 25 L 54 35 L 54 42 L 10 42 Z" fill="#2c3e50" stroke="#1a1a1a" stroke-width="1.5"/>
  <!-- Cam -->
  <path d="M 24 25 L 27 22 L 37 22 L 40 25 Z" fill="#5dade2" stroke="#1a1a1a" stroke-width="1"/>
  <!-- Ön cam -->
  <path d="M 17 27 L 22 27 L 24 25 L 20 25 Z" fill="#5dade2" opacity="0.8"/>
  <!-- Arka cam -->
  <path d="M 40 25 L 42 27 L 47 27 L 44 25 Z" fill="#5dade2" opacity="0.8"/>
  <!-- Ön tekerlek -->
  <circle cx="19" cy="42" r="5" fill="#34495e" stroke="#1a1a1a" stroke-width="1.5"/>
  <circle cx="19" cy="42" r="2.5" fill="#7f8c8d"/>
  <!-- Arka tekerlek -->
  <circle cx="45" cy="42" r="5" fill="#34495e" stroke="#1a1a1a" stroke-width="1.5"/>
  <circle cx="45" cy="42" r="2.5" fill="#7f8c8d"/>
  <!-- Farlar -->
  <rect x="11" y="35" width="3" height="2" fill="#f39c12" rx="0.5"/>
  <rect x="50" y="35" width="3" height="2" fill="#e74c3c" rx="0.5"/>
  <!-- Detaylar -->
  <line x1="28" y1="30" x2="36" y2="30" stroke="#1a1a1a" stroke-width="0.5" opacity="0.3"/>
</svg>
